<?xml version="1.0" encoding="utf-8"?>
<!-- Generator: Adobe Illustrator 23.1.1, SVG Export Plug-In . SVG Version: 6.00 Build 0)  -->
<svg version="1.1" id="레이어_1" xmlns="http://www.w3.org/2000/svg" xmlns:xlink="http://www.w3.org/1999/xlink" x="0px"
	 y="0px" viewBox="0 0 1821 74" style="enable-background:new 0 0 1821 74;" xml:space="preserve">
<style type="text/css">
	.st0{fill:#EBFFFF;stroke:#8C9900;stroke-miterlimit:10;}
</style>
<g>
	<g>
		<path class="st0" d="M65.04,26.55H83.6l-25.07,7.98h153.51l25.07-7.98h18.55l-54.93,17.5h-18.55l26.3-8.38H54.97l-26.3,8.38H10.12
			L65.04,26.55z"/>
		<path class="st0" d="M244.02,48.54c9.95-0.11,18.06-0.28,24.37-0.49c6.3-0.21,12.06-0.52,17.28-0.92
			c5.21-0.4,11.1-0.95,17.64-1.63l13.1-1.33l-40.38-12.9h18.92l34.19,11.58l17.46-1.87c10.91-1.18,20.06-2.21,27.46-3.1
			c7.4-0.88,13.76-1.69,19.1-2.41c5.33-0.72,9.76-1.42,13.28-2.09c3.51-0.67,6.85-1.38,10-2.11h18.19
			c-3.15,0.79-6.61,1.52-10.37,2.21c-3.76,0.69-8.37,1.4-13.82,2.15s-12.25,1.59-20.37,2.53c-8.13,0.94-18.25,2.06-30.38,3.35
			l-29.83,3.17c-8.49,0.92-16.07,1.68-22.74,2.27c-6.67,0.6-13.1,1.08-19.28,1.45c-6.18,0.37-12.61,0.64-19.28,0.81
			c-6.67,0.17-14.12,0.28-22.37,0.33L244.02,48.54z"/>
		<path class="st0" d="M487.01,44.29c-29.35,0-44.02-1.12-44.02-3.35c0-0.34,0.36-0.7,1.09-1.08c0.73-0.38,1.69-0.79,2.91-1.23
			l23.65-7.38h17.82l-22.55,7.21c-2.67,0.79-4,1.48-4,2.09c0,1.75,11.28,2.63,33.83,2.63c10.19,0,20.37-0.16,30.56-0.48
			c10.19-0.32,19.76-0.77,28.74-1.35c8.97-0.58,16.37-1.26,22.19-2.03l25.1-8.07h18.19l-33.47,10.7c-0.49,0.13-0.91,0.25-1.27,0.37
			c-0.36,0.11-0.55,0.19-0.55,0.22c0,0.26,2.06,0.39,6.18,0.39l-3.64,1.11c-1.7,0-3.22,0-4.55,0.01c-1.34,0.01-2.49,0.01-3.46,0.01
			c-3.88-0.03-6.85-0.12-8.91-0.27c-2.06-0.15-3.09-0.34-3.09-0.59c0-0.07,0.12-0.15,0.36-0.26c0.24-0.11,0.78-0.31,1.64-0.6
			c0.85-0.29,2.24-0.74,4.18-1.33c-11.16,1.02-24.5,1.82-40.02,2.4C518.42,44,502.77,44.29,487.01,44.29z"/>
		<path class="st0" d="M676.9,31.26H694l-9.82,3.07c7.03-0.65,15.28-1.22,24.74-1.71s19.64-0.86,30.56-1.14s21.58-0.42,32.01-0.42
			c9.7,0,17.52,0.12,23.46,0.36c5.94,0.24,10.3,0.58,13.1,1.04c2.79,0.46,4.18,1.01,4.18,1.67c0,0.38-0.43,0.78-1.27,1.2
			c-0.85,0.43-2,0.88-3.46,1.37l-22.92,7.34h-18.19l22.19-7.12c1.46-0.46,2.48-0.88,3.09-1.25c0.6-0.38,0.91-0.72,0.91-1.03
			c0-0.83-2.49-1.45-7.46-1.85c-4.97-0.4-12.55-0.6-22.74-0.6c-9.95,0-20.25,0.17-30.92,0.52c-10.67,0.34-20.55,0.81-29.65,1.41
			s-16.43,1.27-22.01,2.02l-24.74,7.9h-18.19L676.9,31.26z"/>
		<path class="st0" d="M894.79,44.29c-14.31,0-27.35-0.16-39.11-0.49c-11.77-0.33-21.28-0.82-28.56-1.48l11.28-0.84
			c8,0.61,16.73,1.06,26.19,1.36c9.46,0.3,20.13,0.44,32.01,0.44c11.88,0,22.37-0.12,31.47-0.37c9.09-0.24,16.31-0.6,21.64-1.05
			c5.33-0.46,8-0.99,8-1.59c0-0.65-4.25-1.12-12.73-1.4c-8.49-0.28-20.62-0.56-36.38-0.86c-11.16-0.21-20.55-0.41-28.19-0.6
			c-7.64-0.19-13.34-0.44-17.1-0.75c-3.76-0.31-5.64-0.74-5.64-1.28c0-0.93,3.58-1.72,10.73-2.36c7.15-0.64,16.67-1.12,28.56-1.46
			c11.88-0.34,24.98-0.5,39.29-0.5c14.55,0,26.74,0.17,36.56,0.51c9.82,0.34,16.79,0.77,20.92,1.29l-12,0.67
			c-4.13-0.49-10.43-0.86-18.92-1.1c-8.49-0.24-18.07-0.36-28.74-0.36c-9.7,0-19.04,0.11-28.01,0.32
			c-8.98,0.21-16.25,0.54-21.83,0.98c-5.58,0.44-8.37,1.01-8.37,1.69c0,0.57,3.21,0.98,9.64,1.21c6.42,0.24,16.67,0.48,30.74,0.72
			c12.37,0.23,23.04,0.46,32.01,0.7c8.97,0.24,15.88,0.54,20.73,0.9c4.85,0.36,7.28,0.85,7.28,1.47c0,0.85-3.46,1.6-10.37,2.23
			c-6.91,0.64-16.49,1.13-28.74,1.47C924.93,44.12,910.8,44.29,894.79,44.29z"/>
		<path class="st0" d="M1082.14,44.29c-16.01,0-29.28-0.24-39.83-0.72c-10.55-0.48-18.5-1.13-23.83-1.94c-5.34-0.81-8-1.7-8-2.66
			c0-1.1,2.97-2.12,8.91-3.08c5.94-0.96,14.01-1.8,24.19-2.52c10.19-0.72,21.88-1.28,35.1-1.69c13.22-0.41,26.98-0.61,41.29-0.61
			c16.01,0,29.34,0.25,40.02,0.74c10.67,0.49,18.61,1.14,23.83,1.95c5.21,0.81,7.82,1.71,7.82,2.69c0,1.08-2.91,2.1-8.73,3.04
			c-5.82,0.95-13.82,1.79-24.01,2.52s-21.83,1.29-34.92,1.69S1096.93,44.29,1082.14,44.29z M1085.41,43.19
			c11.15,0,21.95-0.16,32.38-0.49c10.42-0.33,19.83-0.79,28.19-1.39c8.37-0.6,14.97-1.29,19.83-2.08c4.85-0.79,7.28-1.66,7.28-2.59
			c0-0.83-2.13-1.59-6.37-2.26c-4.25-0.67-10.49-1.21-18.73-1.61c-8.25-0.4-18.55-0.6-30.92-0.6c-11.16,0-21.95,0.17-32.38,0.5
			c-10.43,0.34-19.83,0.81-28.19,1.41c-8.37,0.61-14.98,1.31-19.83,2.11c-4.85,0.8-7.28,1.67-7.28,2.6c0,0.82,2.06,1.56,6.18,2.23
			c4.12,0.67,10.37,1.2,18.73,1.58C1062.67,42.99,1073.04,43.19,1085.41,43.19z"/>
		<path class="st0" d="M1289.12,44.29c-16.01,0-29.28-0.24-39.83-0.72c-10.55-0.48-18.5-1.13-23.83-1.94c-5.34-0.81-8-1.7-8-2.66
			c0-1.1,2.97-2.12,8.91-3.08c5.94-0.96,14.01-1.8,24.19-2.52c10.19-0.72,21.88-1.28,35.1-1.69c13.22-0.41,26.98-0.61,41.29-0.61
			c16.01,0,29.34,0.25,40.02,0.74c10.67,0.49,18.61,1.14,23.83,1.95c5.21,0.81,7.82,1.71,7.82,2.69c0,1.08-2.91,2.1-8.73,3.04
			c-5.82,0.95-13.82,1.79-24.01,2.52s-21.83,1.29-34.92,1.69S1303.91,44.29,1289.12,44.29z M1292.39,43.19
			c11.15,0,21.95-0.16,32.38-0.49c10.42-0.33,19.83-0.79,28.19-1.39c8.37-0.6,14.97-1.29,19.83-2.08c4.85-0.79,7.28-1.66,7.28-2.59
			c0-0.83-2.13-1.59-6.37-2.26c-4.25-0.67-10.49-1.21-18.73-1.61c-8.25-0.4-18.55-0.6-30.92-0.6c-11.16,0-21.95,0.17-32.38,0.5
			c-10.43,0.34-19.83,0.81-28.19,1.41c-8.37,0.61-14.98,1.31-19.83,2.11c-4.85,0.8-7.28,1.67-7.28,2.6c0,0.82,2.06,1.56,6.18,2.23
			c4.12,0.67,10.37,1.2,18.73,1.58C1269.66,42.99,1280.02,43.19,1292.39,43.19z"/>
		<path class="st0" d="M1594.68,44.17c-19.64,0-36.74-0.21-51.29-0.64c-14.55-0.43-27.65-1.08-39.29-1.97l12.73-1.01
			c4.12,0.36,8.85,0.69,14.19,0.99c5.33,0.3,11.4,0.56,18.19,0.79c6.79,0.23,14.24,0.41,22.37,0.53c8.12,0.12,17.15,0.19,27.1,0.19
			c15.76,0,29.52-0.16,41.29-0.47c11.76-0.31,20.92-0.76,27.46-1.35c6.55-0.59,9.82-1.3,9.82-2.12c0-0.67-2.49-1.2-7.46-1.59
			c-4.97-0.39-12.37-0.71-22.19-0.96c-9.82-0.25-21.89-0.5-36.2-0.75c-14.55-0.25-26.92-0.5-37.1-0.77s-17.89-0.63-23.1-1.07
			c-5.22-0.44-7.82-1.06-7.82-1.85c0-0.87,2.55-1.65,7.64-2.35c5.09-0.7,12.24-1.3,21.46-1.8c9.21-0.5,20.01-0.88,32.38-1.14
			s25.95-0.39,40.74-0.39c10.91,0,20.79,0.08,29.65,0.23c8.85,0.16,16.79,0.39,23.83,0.69c7.03,0.3,13.22,0.68,18.55,1.12
			l-12.73,0.99c-2.91-0.3-6.43-0.56-10.55-0.8c-4.13-0.24-8.86-0.44-14.19-0.6c-5.34-0.16-11.04-0.29-17.1-0.37
			c-6.06-0.08-12.73-0.12-20.01-0.12c-17.71,0-32.44,0.19-44.2,0.57c-11.77,0.38-20.62,0.88-26.56,1.51
			c-5.95,0.63-8.91,1.34-8.91,2.13c0,0.61,2.24,1.08,6.73,1.43c4.48,0.34,11.21,0.63,20.19,0.85c8.97,0.22,20.37,0.45,34.19,0.68
			c16.01,0.26,29.4,0.55,40.2,0.86c10.79,0.31,18.97,0.71,24.55,1.19c5.58,0.48,8.37,1.15,8.37,2.01c0,0.9-2.67,1.69-8,2.37
			c-5.34,0.68-12.67,1.24-22.01,1.69c-9.34,0.44-20.19,0.77-32.56,1C1622.69,44.06,1609.23,44.17,1594.68,44.17z"/>
		<path class="st0" d="M1762.74,31.26h18.19l-40.01,12.79h-18.19L1762.74,31.26z M1779.11,26.08h18.19l-6.91,2.27h-18.19
			L1779.11,26.08z"/>
	</g>
</g>
</svg>
