<?xml version="1.0" encoding="utf-8"?>
<!-- Generator: Adobe Illustrator 23.1.1, SVG Export Plug-In . SVG Version: 6.00 Build 0)  -->
<svg version="1.1" id="레이어_1" xmlns="http://www.w3.org/2000/svg" xmlns:xlink="http://www.w3.org/1999/xlink" x="0px"
	 y="0px" viewBox="0 0 366 74" style="enable-background:new 0 0 366 74;" xml:space="preserve">
<style type="text/css">
	.st0{fill:#FF569A;stroke:#DDFF32;stroke-miterlimit:10;}
</style>
<g>
	<g>
		<path class="st0" d="M20.72,5.29h3.57l-4.82,22.66h29.51L53.8,5.29h3.57L46.81,54.94h-3.57l5.06-23.77H18.79l-5.06,23.77h-3.57
			L20.72,5.29z"/>
		<path class="st0" d="M55.13,67.68c1.91-0.33,3.47-0.79,4.68-1.39c1.21-0.6,2.32-1.48,3.32-2.62c1-1.14,2.13-2.69,3.39-4.64
			l2.52-3.77l-7.76-36.61h3.64l6.57,32.85l3.36-5.3c2.1-3.35,3.86-6.28,5.28-8.79c1.42-2.51,2.65-4.79,3.67-6.83
			c1.02-2.05,1.88-4.02,2.55-5.93c0.68-1.91,1.32-3.91,1.92-6h3.5c-0.61,2.23-1.27,4.32-1.99,6.28c-0.72,1.95-1.61,3.99-2.66,6.1
			s-2.35,4.51-3.92,7.18c-1.56,2.67-3.51,5.85-5.84,9.52l-5.73,9c-1.63,2.6-3.09,4.75-4.37,6.45c-1.28,1.7-2.52,3.07-3.71,4.11
			c-1.19,1.05-2.42,1.81-3.71,2.3c-1.28,0.49-2.71,0.8-4.3,0.94L55.13,67.68z"/>
		<path class="st0" d="M101.84,55.64c-5.64,0-8.46-3.16-8.46-9.49c0-0.98,0.07-2,0.21-3.07c0.14-1.07,0.33-2.23,0.56-3.49
			l4.54-20.94h3.43L97.78,39.1c-0.51,2.23-0.77,4.21-0.77,5.93c0,4.98,2.17,7.47,6.5,7.47c1.96,0,3.92-0.45,5.87-1.36
			s3.8-2.19,5.52-3.84c1.72-1.65,3.15-3.57,4.27-5.76L124,18.65h3.5L121.06,49c-0.09,0.37-0.17,0.72-0.24,1.05
			c-0.07,0.33-0.1,0.54-0.1,0.63c0,0.75,0.4,1.12,1.19,1.12l-0.7,3.15c-0.33,0-0.62,0.01-0.87,0.04c-0.26,0.02-0.48,0.03-0.66,0.03
			c-0.75-0.09-1.32-0.35-1.71-0.77c-0.4-0.42-0.59-0.98-0.59-1.67c0-0.19,0.02-0.43,0.07-0.73c0.05-0.3,0.15-0.87,0.31-1.71
			c0.16-0.84,0.43-2.09,0.8-3.77c-2.14,2.89-4.71,5.15-7.69,6.81C107.87,54.82,104.87,55.64,101.84,55.64z"/>
		<path class="st0" d="M138.34,18.65h3.29l-1.89,8.71c1.35-1.86,2.94-3.47,4.76-4.84c1.82-1.37,3.78-2.45,5.87-3.24
			c2.1-0.79,4.15-1.18,6.15-1.18c1.86,0,3.37,0.34,4.51,1.01c1.14,0.67,1.98,1.66,2.52,2.96c0.54,1.3,0.8,2.88,0.8,4.74
			c0,1.07-0.08,2.21-0.25,3.41c-0.16,1.21-0.38,2.51-0.66,3.9l-4.41,20.83h-3.5l4.27-20.19c0.28-1.3,0.48-2.48,0.59-3.55
			c0.12-1.07,0.17-2.04,0.17-2.93c0-2.37-0.48-4.12-1.43-5.26c-0.96-1.14-2.41-1.71-4.37-1.71c-1.91,0-3.89,0.49-5.94,1.46
			c-2.05,0.97-3.95,2.31-5.7,4c-1.75,1.69-3.16,3.61-4.23,5.74l-4.75,22.43h-3.5L138.34,18.65z"/>
		<path class="st0" d="M180.22,55.64c-2.75,0-5.26-0.47-7.52-1.4c-2.26-0.93-4.09-2.33-5.49-4.2l2.17-2.38
			c1.54,1.73,3.22,3.01,5.03,3.85c1.82,0.84,3.87,1.26,6.15,1.26c2.28,0,4.3-0.35,6.05-1.04c1.75-0.69,3.13-1.69,4.16-2.99
			c1.02-1.3,1.54-2.81,1.54-4.52c0-1.86-0.82-3.18-2.45-3.97c-1.63-0.79-3.96-1.6-6.99-2.44c-2.14-0.6-3.95-1.17-5.42-1.71
			c-1.47-0.53-2.56-1.24-3.29-2.12c-0.72-0.88-1.08-2.09-1.08-3.62c0-2.65,0.69-4.88,2.06-6.69c1.37-1.81,3.2-3.19,5.49-4.15
			c2.28-0.95,4.8-1.43,7.55-1.43c2.8,0,5.14,0.48,7.03,1.43c1.89,0.96,3.23,2.18,4.02,3.67l-2.31,1.89c-0.79-1.4-2-2.44-3.64-3.11
			c-1.63-0.68-3.47-1.01-5.52-1.01c-1.87,0-3.66,0.3-5.38,0.91c-1.73,0.6-3.12,1.53-4.2,2.78c-1.07,1.25-1.61,2.85-1.61,4.8
			c0,1.62,0.62,2.77,1.85,3.45c1.23,0.67,3.2,1.36,5.91,2.05c2.38,0.65,4.43,1.31,6.15,1.99c1.72,0.67,3.05,1.52,3.99,2.54
			c0.93,1.02,1.4,2.41,1.4,4.18c0,2.42-0.66,4.53-1.99,6.34s-3.17,3.2-5.52,4.18C186.01,55.15,183.3,55.64,180.22,55.64z"/>
		<path class="st0" d="M216.23,55.64c-3.08,0-5.63-0.69-7.66-2.06s-3.56-3.2-4.58-5.5c-1.03-2.3-1.54-4.82-1.54-7.56
			c0-3.11,0.57-6.03,1.71-8.74c1.14-2.72,2.69-5.1,4.65-7.14s4.21-3.65,6.75-4.81c2.54-1.16,5.19-1.74,7.94-1.74
			c3.08,0,5.64,0.7,7.69,2.09c2.05,1.39,3.58,3.24,4.58,5.54c1,2.3,1.5,4.84,1.5,7.63c0,3.07-0.56,5.94-1.68,8.64
			s-2.66,5.07-4.62,7.14c-1.96,2.07-4.2,3.67-6.71,4.81C221.76,55.07,219.08,55.64,216.23,55.64z M216.86,52.49
			c2.14,0,4.22-0.46,6.22-1.39c2-0.93,3.81-2.24,5.42-3.93c1.61-1.69,2.88-3.67,3.81-5.92c0.93-2.25,1.4-4.7,1.4-7.34
			c0-2.37-0.41-4.5-1.22-6.4c-0.82-1.9-2.02-3.42-3.6-4.56c-1.59-1.14-3.57-1.71-5.94-1.71c-2.14,0-4.22,0.48-6.22,1.43
			c-2,0.95-3.81,2.29-5.42,4c-1.61,1.72-2.88,3.71-3.81,5.99c-0.93,2.27-1.4,4.73-1.4,7.38c0,2.32,0.4,4.43,1.19,6.33
			c0.79,1.9,1.99,3.4,3.6,4.49S214.48,52.49,216.86,52.49z"/>
		<path class="st0" d="M256.02,55.64c-3.08,0-5.63-0.69-7.66-2.06c-2.03-1.37-3.55-3.2-4.58-5.5s-1.54-4.82-1.54-7.56
			c0-3.11,0.57-6.03,1.71-8.74c1.14-2.72,2.69-5.1,4.65-7.14s4.21-3.65,6.75-4.81c2.54-1.16,5.19-1.74,7.94-1.74
			c3.08,0,5.64,0.7,7.69,2.09c2.05,1.39,3.58,3.24,4.58,5.54c1,2.3,1.5,4.84,1.5,7.63c0,3.07-0.56,5.94-1.68,8.64
			c-1.12,2.69-2.66,5.07-4.62,7.14c-1.96,2.07-4.2,3.67-6.71,4.81C261.54,55.07,258.86,55.64,256.02,55.64z M256.65,52.49
			c2.14,0,4.22-0.46,6.22-1.39c2-0.93,3.81-2.24,5.42-3.93c1.61-1.69,2.88-3.67,3.81-5.92c0.93-2.25,1.4-4.7,1.4-7.34
			c0-2.37-0.41-4.5-1.22-6.4c-0.82-1.9-2.02-3.42-3.6-4.56c-1.58-1.14-3.57-1.71-5.94-1.71c-2.14,0-4.22,0.48-6.22,1.43
			c-2,0.95-3.81,2.29-5.42,4c-1.61,1.72-2.88,3.71-3.81,5.99c-0.93,2.27-1.4,4.73-1.4,7.38c0,2.32,0.4,4.43,1.19,6.33
			c0.79,1.9,1.99,3.4,3.6,4.49S254.27,52.49,256.65,52.49z"/>
		<path class="st0" d="M314.75,55.29c-3.78,0-7.06-0.61-9.86-1.82c-2.8-1.21-5.31-3.08-7.55-5.59l2.45-2.87
			c0.79,1.03,1.7,1.96,2.73,2.8c1.02,0.84,2.19,1.59,3.5,2.24c1.3,0.65,2.74,1.15,4.3,1.5c1.56,0.35,3.3,0.52,5.21,0.52
			c3.03,0,5.67-0.44,7.94-1.33c2.26-0.88,4.02-2.16,5.28-3.84c1.26-1.67,1.89-3.68,1.89-6c0-1.91-0.48-3.41-1.43-4.5
			c-0.96-1.09-2.38-2-4.27-2.72c-1.89-0.72-4.21-1.43-6.96-2.13c-2.8-0.7-5.17-1.43-7.13-2.2s-3.44-1.78-4.44-3.04
			c-1-1.26-1.5-3-1.5-5.24c0-2.47,0.49-4.69,1.47-6.67c0.98-1.98,2.35-3.68,4.13-5.1c1.77-1.42,3.85-2.5,6.22-3.25
			c2.38-0.75,4.99-1.12,7.83-1.12c2.1,0,4,0.22,5.7,0.66c1.7,0.44,3.23,1.1,4.58,1.96c1.35,0.86,2.54,1.92,3.57,3.18l-2.45,2.8
			c-0.56-0.84-1.24-1.6-2.03-2.27c-0.79-0.68-1.7-1.25-2.73-1.71c-1.03-0.47-2.12-0.81-3.29-1.05c-1.17-0.23-2.45-0.35-3.85-0.35
			c-3.4,0-6.24,0.54-8.5,1.61c-2.26,1.07-3.96,2.5-5.1,4.29c-1.14,1.79-1.71,3.81-1.71,6.04c0,1.72,0.43,3.07,1.29,4.05
			c0.86,0.98,2.16,1.78,3.88,2.41c1.72,0.63,3.92,1.27,6.57,1.92c3.08,0.75,5.65,1.56,7.73,2.44c2.07,0.89,3.65,2.01,4.72,3.39
			s1.61,3.27,1.61,5.69c0,2.56-0.51,4.81-1.54,6.74s-2.44,3.53-4.23,4.78c-1.79,1.26-3.88,2.2-6.26,2.83
			C320.14,54.98,317.55,55.29,314.75,55.29z"/>
		<path class="st0" d="M347.06,18.65h3.5l-7.69,36.29h-3.5L347.06,18.65z M350.21,3.97h3.5l-1.33,6.43h-3.5L350.21,3.97z"/>
	</g>
</g>
</svg>
