<?xml version="1.0" encoding="utf-8"?>
<!-- Generator: Adobe Illustrator 23.1.1, SVG Export Plug-In . SVG Version: 6.00 Build 0)  -->
<svg version="1.1" id="레이어_1" xmlns="http://www.w3.org/2000/svg" xmlns:xlink="http://www.w3.org/1999/xlink" x="0px"
	 y="0px" viewBox="0 0 487 354" style="enable-background:new 0 0 487 354;" xml:space="preserve">
<style type="text/css">
	.st0{fill:#EBFFFF;}
	.st1{fill:#FF569A;stroke:#DDFF32;stroke-miterlimit:10;}
	.st2{fill:#FF569A;stroke:#00CCC0;stroke-miterlimit:10;}
</style>
<rect x="0.44" y="-0.44" class="st0" width="486.5" height="132"/>
<g>
	<g>
		<path class="st1" d="M100.96,35.2h3.57L99.7,57.85h29.51l4.82-22.66h3.57l-10.56,49.65h-3.57l5.06-23.77H99.02l-5.06,23.77H90.4
			L100.96,35.2z"/>
		<path class="st1" d="M135.36,97.58c1.91-0.33,3.47-0.79,4.68-1.39c1.21-0.6,2.32-1.48,3.32-2.62c1-1.14,2.13-2.69,3.39-4.64
			l2.52-3.77l-7.76-36.61h3.64l6.57,32.85l3.36-5.3c2.1-3.35,3.86-6.28,5.28-8.79c1.42-2.51,2.65-4.79,3.67-6.83
			c1.02-2.05,1.88-4.02,2.55-5.93c0.68-1.91,1.32-3.91,1.92-6h3.5c-0.61,2.23-1.27,4.32-1.99,6.28c-0.72,1.95-1.61,3.99-2.66,6.1
			s-2.35,4.51-3.92,7.18c-1.56,2.67-3.51,5.85-5.84,9.52l-5.73,9c-1.63,2.6-3.09,4.75-4.37,6.45c-1.28,1.7-2.52,3.07-3.71,4.11
			c-1.19,1.05-2.42,1.81-3.71,2.3c-1.28,0.49-2.71,0.8-4.3,0.94L135.36,97.58z"/>
		<path class="st1" d="M182.07,85.54c-5.64,0-8.46-3.16-8.46-9.49c0-0.98,0.07-2,0.21-3.07c0.14-1.07,0.33-2.23,0.56-3.49
			l4.54-20.94h3.43L178.01,69c-0.51,2.23-0.77,4.21-0.77,5.93c0,4.98,2.17,7.47,6.5,7.47c1.96,0,3.92-0.45,5.87-1.36
			c1.96-0.91,3.8-2.18,5.52-3.84c1.72-1.65,3.15-3.57,4.27-5.76l4.82-22.89h3.5l-6.43,30.35c-0.09,0.37-0.17,0.72-0.24,1.05
			c-0.07,0.33-0.1,0.54-0.1,0.63c0,0.75,0.4,1.12,1.19,1.12l-0.7,3.15c-0.33,0-0.62,0.01-0.87,0.04c-0.26,0.02-0.48,0.04-0.66,0.04
			c-0.75-0.09-1.32-0.35-1.71-0.77c-0.4-0.42-0.59-0.98-0.59-1.67c0-0.19,0.02-0.43,0.07-0.73c0.05-0.3,0.15-0.87,0.31-1.71
			c0.16-0.84,0.43-2.09,0.8-3.77c-2.14,2.89-4.71,5.15-7.69,6.81C188.1,84.72,185.1,85.54,182.07,85.54z"/>
		<path class="st1" d="M218.57,48.55h3.29l-1.89,8.71c1.35-1.86,2.94-3.47,4.76-4.84c1.82-1.37,3.78-2.45,5.87-3.24
			c2.1-0.79,4.15-1.18,6.15-1.18c1.86,0,3.37,0.34,4.51,1.01c1.14,0.67,1.98,1.66,2.52,2.96c0.54,1.3,0.8,2.88,0.8,4.74
			c0,1.07-0.08,2.21-0.25,3.41c-0.16,1.21-0.38,2.51-0.66,3.9l-4.41,20.83h-3.5l4.27-20.19c0.28-1.3,0.48-2.48,0.59-3.55
			c0.12-1.07,0.17-2.04,0.17-2.93c0-2.37-0.48-4.12-1.43-5.26c-0.96-1.14-2.41-1.71-4.37-1.71c-1.91,0-3.89,0.49-5.94,1.46
			c-2.05,0.97-3.95,2.31-5.7,4c-1.75,1.69-3.16,3.61-4.23,5.74l-4.75,22.43h-3.5L218.57,48.55z"/>
		<path class="st1" d="M260.45,85.54c-2.75,0-5.26-0.47-7.52-1.4c-2.26-0.93-4.09-2.33-5.49-4.2l2.17-2.38
			c1.54,1.73,3.22,3.01,5.04,3.85c1.82,0.84,3.87,1.26,6.15,1.26c2.28,0,4.3-0.35,6.05-1.04c1.75-0.69,3.13-1.69,4.16-2.99
			c1.02-1.3,1.54-2.81,1.54-4.52c0-1.86-0.82-3.18-2.45-3.97c-1.63-0.79-3.96-1.6-6.99-2.44c-2.14-0.6-3.95-1.17-5.42-1.71
			c-1.47-0.53-2.56-1.24-3.29-2.12c-0.72-0.88-1.08-2.09-1.08-3.62c0-2.65,0.69-4.88,2.06-6.69c1.37-1.81,3.2-3.19,5.49-4.15
			c2.28-0.95,4.8-1.43,7.55-1.43c2.8,0,5.14,0.48,7.03,1.43c1.89,0.96,3.23,2.18,4.02,3.67l-2.31,1.89c-0.79-1.4-2-2.44-3.64-3.11
			c-1.63-0.68-3.47-1.01-5.52-1.01c-1.87,0-3.66,0.3-5.38,0.91c-1.73,0.6-3.12,1.53-4.2,2.78c-1.07,1.25-1.61,2.85-1.61,4.8
			c0,1.62,0.62,2.77,1.85,3.45c1.23,0.67,3.2,1.36,5.91,2.05c2.38,0.65,4.43,1.31,6.15,1.99c1.72,0.67,3.05,1.52,3.99,2.54
			c0.93,1.02,1.4,2.41,1.4,4.18c0,2.42-0.66,4.53-1.99,6.34c-1.33,1.81-3.17,3.2-5.52,4.18C266.25,85.06,263.53,85.54,260.45,85.54z
			"/>
		<path class="st1" d="M296.47,85.54c-3.08,0-5.63-0.68-7.66-2.05c-2.03-1.37-3.55-3.21-4.58-5.5c-1.03-2.3-1.54-4.82-1.54-7.56
			c0-3.11,0.57-6.03,1.71-8.74c1.14-2.72,2.69-5.1,4.65-7.14s4.21-3.65,6.75-4.81c2.54-1.16,5.19-1.74,7.94-1.74
			c3.08,0,5.64,0.7,7.69,2.09c2.05,1.39,3.58,3.24,4.58,5.54c1,2.3,1.5,4.84,1.5,7.63c0,3.07-0.56,5.94-1.68,8.64
			c-1.12,2.69-2.66,5.07-4.62,7.14s-4.2,3.67-6.71,4.81C301.99,84.97,299.31,85.54,296.47,85.54z M297.09,82.4
			c2.14,0,4.22-0.46,6.22-1.39c2-0.93,3.81-2.24,5.42-3.93s2.88-3.67,3.81-5.92c0.93-2.25,1.4-4.7,1.4-7.34
			c0-2.37-0.41-4.5-1.22-6.4c-0.82-1.9-2.02-3.42-3.6-4.56c-1.58-1.14-3.57-1.71-5.94-1.71c-2.14,0-4.22,0.48-6.22,1.43
			c-2,0.95-3.81,2.29-5.42,4c-1.61,1.72-2.88,3.71-3.81,5.99c-0.93,2.27-1.4,4.73-1.4,7.38c0,2.32,0.4,4.43,1.19,6.33
			c0.79,1.9,1.99,3.4,3.6,4.49C292.72,81.85,294.72,82.4,297.09,82.4z"/>
		<path class="st1" d="M336.25,85.54c-3.08,0-5.63-0.68-7.66-2.05c-2.03-1.37-3.56-3.21-4.58-5.5c-1.03-2.3-1.54-4.82-1.54-7.56
			c0-3.11,0.57-6.03,1.71-8.74c1.14-2.72,2.69-5.1,4.65-7.14s4.21-3.65,6.75-4.81c2.54-1.16,5.19-1.74,7.94-1.74
			c3.08,0,5.64,0.7,7.69,2.09c2.05,1.39,3.58,3.24,4.58,5.54c1,2.3,1.5,4.84,1.5,7.63c0,3.07-0.56,5.94-1.68,8.64
			c-1.12,2.69-2.66,5.07-4.62,7.14s-4.2,3.67-6.71,4.81C341.78,84.97,339.1,85.54,336.25,85.54z M336.88,82.4
			c2.14,0,4.22-0.46,6.22-1.39c2-0.93,3.81-2.24,5.42-3.93s2.88-3.67,3.81-5.92c0.93-2.25,1.4-4.7,1.4-7.34
			c0-2.37-0.41-4.5-1.22-6.4s-2.02-3.42-3.6-4.56c-1.59-1.14-3.57-1.71-5.94-1.71c-2.14,0-4.22,0.48-6.22,1.43
			c-2,0.95-3.81,2.29-5.42,4c-1.61,1.72-2.88,3.71-3.81,5.99c-0.93,2.27-1.4,4.73-1.4,7.38c0,2.32,0.4,4.43,1.19,6.33
			c0.79,1.9,1.99,3.4,3.6,4.49C332.51,81.85,334.5,82.4,336.88,82.4z"/>
		<path class="st1" d="M394.99,85.19c-3.78,0-7.06-0.61-9.86-1.82s-5.31-3.08-7.55-5.59l2.45-2.87c0.79,1.03,1.7,1.96,2.73,2.8
			c1.03,0.84,2.19,1.58,3.5,2.24c1.3,0.65,2.74,1.15,4.3,1.5c1.56,0.35,3.3,0.52,5.21,0.52c3.03,0,5.67-0.44,7.94-1.33
			c2.26-0.88,4.02-2.16,5.28-3.84c1.26-1.67,1.89-3.68,1.89-6c0-1.91-0.48-3.41-1.43-4.5c-0.96-1.09-2.38-2-4.27-2.72
			c-1.89-0.72-4.21-1.43-6.96-2.13c-2.8-0.7-5.17-1.43-7.13-2.2s-3.44-1.78-4.44-3.04c-1-1.26-1.5-3-1.5-5.24
			c0-2.47,0.49-4.69,1.47-6.67c0.98-1.98,2.35-3.68,4.12-5.1c1.77-1.42,3.85-2.5,6.22-3.25c2.38-0.75,4.99-1.12,7.83-1.12
			c2.1,0,4,0.22,5.7,0.66c1.7,0.44,3.23,1.1,4.58,1.96c1.35,0.86,2.54,1.92,3.57,3.18l-2.45,2.8c-0.56-0.84-1.24-1.6-2.03-2.27
			c-0.79-0.68-1.7-1.25-2.73-1.71c-1.03-0.47-2.12-0.81-3.29-1.05c-1.17-0.23-2.45-0.35-3.85-0.35c-3.4,0-6.24,0.54-8.5,1.61
			c-2.26,1.07-3.96,2.5-5.1,4.29c-1.14,1.79-1.71,3.81-1.71,6.04c0,1.72,0.43,3.07,1.29,4.05c0.86,0.98,2.16,1.78,3.88,2.41
			c1.72,0.63,3.92,1.27,6.57,1.92c3.08,0.75,5.65,1.56,7.73,2.44c2.07,0.89,3.65,2.01,4.72,3.39c1.07,1.37,1.61,3.27,1.61,5.69
			c0,2.56-0.51,4.81-1.54,6.74c-1.03,1.93-2.44,3.53-4.23,4.78c-1.8,1.26-3.88,2.2-6.26,2.83
			C400.37,84.88,397.79,85.19,394.99,85.19z"/>
		<path class="st1" d="M427.29,48.55h3.5l-7.69,36.29h-3.5L427.29,48.55z M430.44,33.87h3.5l-1.33,6.43h-3.5L430.44,33.87z"/>
	</g>
</g>
<g>
	<g>
		<path class="st0" d="M94.9,28.85h1.83L94.26,140.1h15.16l2.48-111.25h1.83l-5.42,243.8h-1.83l2.6-116.75H93.91l-2.6,116.75h-1.83
			L94.9,28.85z"/>
		<path class="st0" d="M112.57,335.18c0.98-1.6,1.78-3.88,2.41-6.85c0.62-2.97,1.19-7.25,1.71-12.84c0.51-5.6,1.1-13.19,1.74-22.77
			l1.29-18.49l-3.99-179.79h1.87l3.38,161.3l1.72-26.03c1.08-16.44,1.98-30.82,2.71-43.15c0.73-12.33,1.36-23.52,1.89-33.56
			c0.53-10.04,0.96-19.75,1.31-29.11c0.35-9.36,0.68-19.18,0.99-29.45h1.8c-0.31,10.96-0.65,21.24-1.02,30.82
			c-0.37,9.59-0.83,19.58-1.36,29.96c-0.54,10.39-1.21,22.15-2.01,35.27c-0.8,13.13-1.8,28.71-3,46.74l-2.94,44.18
			c-0.84,12.78-1.59,23.34-2.25,31.68c-0.66,8.33-1.29,15.07-1.9,20.21c-0.61,5.13-1.25,8.9-1.9,11.3
			c-0.66,2.39-1.39,3.93-2.21,4.62L112.57,335.18z"/>
		<path class="st0" d="M136.56,276.08c-2.9,0-4.35-15.54-4.35-46.61c0-4.8,0.04-9.82,0.11-15.08c0.07-5.25,0.17-10.97,0.29-17.14
			l2.33-102.82h1.76l-2.23,100.4c-0.26,10.97-0.4,20.68-0.4,29.13c0,24.44,1.11,36.67,3.34,36.67c1.01,0,2.01-2.23,3.02-6.68
			c1.01-4.45,1.95-10.73,2.84-18.84c0.89-8.11,1.62-17.53,2.19-28.26l2.48-112.41h1.8l-3.3,149.05c-0.05,1.83-0.09,3.54-0.13,5.14
			c-0.04,1.6-0.05,2.63-0.05,3.08c0,3.66,0.2,5.48,0.61,5.48l-0.36,15.45c-0.17,0-0.32,0.05-0.45,0.17
			c-0.13,0.11-0.25,0.17-0.34,0.17c-0.38-0.46-0.68-1.71-0.88-3.77c-0.2-2.06-0.31-4.8-0.31-8.23c0-0.91,0.01-2.11,0.04-3.59
			c0.02-1.48,0.08-4.28,0.16-8.4c0.08-4.11,0.22-10.28,0.41-18.5c-1.1,14.17-2.42,25.31-3.95,33.42
			C139.67,272.03,138.12,276.08,136.56,276.08z"/>
		<path class="st0" d="M155.31,94.43H157l-0.97,42.75c0.69-9.12,1.51-17.04,2.44-23.77c0.93-6.73,1.94-12.03,3.02-15.91
			c1.08-3.87,2.13-5.82,3.16-5.82c0.96,0,1.73,1.66,2.32,4.96s1.02,8.15,1.29,14.53c0.27,6.38,0.41,14.14,0.41,23.26
			c0,5.25-0.04,10.83-0.13,16.76c-0.08,5.93-0.2,12.32-0.34,19.15l-2.26,102.28h-1.8l2.19-99.17c0.14-6.38,0.25-12.2,0.31-17.44
			c0.06-5.24,0.09-10.03,0.09-14.36c0-11.62-0.25-20.23-0.74-25.81s-1.24-8.38-2.24-8.38c-0.98,0-2,2.39-3.05,7.18
			c-1.05,4.79-2.03,11.33-2.93,19.65c-0.9,8.32-1.62,17.71-2.17,28.19l-2.44,110.15h-1.8L155.31,94.43z"/>
		<path class="st0" d="M176.83,276.08c-1.41,0-2.7-2.29-3.86-6.87c-1.16-4.58-2.1-11.44-2.82-20.6l1.11-11.67
			c0.79,8.47,1.65,14.77,2.59,18.89c0.93,4.12,1.99,6.18,3.16,6.18c1.17,0,2.21-1.71,3.11-5.12c0.9-3.41,1.61-8.31,2.14-14.69
			c0.53-6.38,0.79-13.78,0.79-22.21c0-9.12-0.42-15.62-1.26-19.5c-0.84-3.87-2.04-7.87-3.59-11.97c-1.1-2.96-2.03-5.76-2.78-8.38
			c-0.75-2.62-1.32-6.1-1.69-10.44c-0.37-4.33-0.56-10.26-0.56-17.79c0-13,0.35-23.95,1.06-32.84c0.71-8.9,1.65-15.68,2.82-20.36
			c1.17-4.67,2.47-7.01,3.88-7.01c1.44,0,2.64,2.35,3.61,7.04c0.97,4.7,1.66,10.7,2.07,18.03l-1.19,9.27
			c-0.41-6.87-1.03-11.96-1.87-15.28c-0.84-3.32-1.78-4.98-2.84-4.98c-0.96,0-1.88,1.49-2.77,4.45c-0.89,2.96-1.6,7.52-2.16,13.67
			c-0.55,6.15-0.83,14.01-0.83,23.58c0,7.98,0.32,13.62,0.95,16.92c0.63,3.3,1.65,6.67,3.03,10.09c1.22,3.2,2.27,6.45,3.16,9.75
			c0.89,3.31,1.57,7.47,2.05,12.49c0.48,5.02,0.72,11.86,0.72,20.52c0,11.86-0.34,22.24-1.02,31.13c-0.68,8.9-1.63,15.74-2.84,20.52
			C179.8,273.68,178.41,276.08,176.83,276.08z"/>
		<path class="st0" d="M195.32,276.08c-1.58,0-2.89-3.36-3.93-10.09c-1.04-6.73-1.83-15.74-2.35-27.02
			c-0.53-11.29-0.79-23.66-0.79-37.12c0-15.28,0.29-29.59,0.88-42.94c0.59-13.34,1.38-25.03,2.39-35.06
			c1.01-10.03,2.16-17.9,3.47-23.61c1.3-5.7,2.66-8.55,4.08-8.55c1.58,0,2.9,3.42,3.95,10.26c1.05,6.85,1.84,15.91,2.35,27.2
			c0.51,11.29,0.77,23.78,0.77,37.46c0,15.05-0.29,29.19-0.86,42.42c-0.57,13.23-1.36,24.92-2.37,35.07
			c-1.01,10.15-2.15,18.02-3.45,23.6C198.16,273.28,196.78,276.08,195.32,276.08z M195.65,260.63c1.1,0,2.17-2.28,3.2-6.84
			c1.03-4.56,1.96-11,2.78-19.31s1.48-18.01,1.96-29.06c0.48-11.05,0.72-23.07,0.72-36.07c0-11.62-0.21-22.1-0.63-31.45
			s-1.04-16.81-1.85-22.39c-0.81-5.58-1.83-8.38-3.05-8.38c-1.1,0-2.17,2.34-3.2,7.01c-1.03,4.67-1.96,11.22-2.78,19.66
			c-0.83,8.43-1.48,18.23-1.96,29.4c-0.48,11.17-0.72,23.25-0.72,36.24c0,11.4,0.2,21.77,0.61,31.11c0.41,9.35,1.02,16.7,1.85,22.05
			S194.43,260.63,195.65,260.63z"/>
		<path class="st0" d="M215.76,276.08c-1.58,0-2.89-3.36-3.93-10.09c-1.04-6.73-1.83-15.74-2.35-27.02
			c-0.53-11.29-0.79-23.66-0.79-37.12c0-15.28,0.29-29.59,0.88-42.94c0.59-13.34,1.38-25.03,2.39-35.06
			c1.01-10.03,2.16-17.9,3.47-23.61c1.3-5.7,2.66-8.55,4.08-8.55c1.58,0,2.9,3.42,3.95,10.26c1.05,6.85,1.84,15.91,2.35,27.2
			c0.51,11.29,0.77,23.78,0.77,37.46c0,15.05-0.29,29.19-0.86,42.42c-0.57,13.23-1.36,24.92-2.37,35.07
			c-1.01,10.15-2.15,18.02-3.45,23.6C218.6,273.28,217.22,276.08,215.76,276.08z M216.08,260.63c1.1,0,2.17-2.28,3.2-6.84
			c1.03-4.56,1.96-11,2.78-19.31s1.48-18.01,1.96-29.06c0.48-11.05,0.72-23.07,0.72-36.07c0-11.62-0.21-22.1-0.63-31.45
			s-1.04-16.81-1.85-22.39c-0.81-5.58-1.83-8.38-3.05-8.38c-1.1,0-2.17,2.34-3.2,7.01c-1.03,4.67-1.96,11.22-2.78,19.66
			c-0.83,8.43-1.48,18.23-1.96,29.4c-0.48,11.17-0.72,23.25-0.72,36.24c0,11.4,0.2,21.77,0.61,31.11c0.41,9.35,1.02,16.7,1.85,22.05
			S214.86,260.63,216.08,260.63z"/>
		<path class="st0" d="M245.93,274.36c-1.94,0-3.63-2.97-5.06-8.93c-1.44-5.95-2.73-15.11-3.88-27.47l1.26-14.08
			c0.41,5.04,0.87,9.61,1.4,13.73c0.53,4.12,1.12,7.79,1.8,10.99c0.67,3.21,1.41,5.67,2.21,7.38c0.8,1.72,1.69,2.58,2.68,2.58
			c1.56,0,2.92-2.17,4.08-6.51c1.16-4.34,2.07-10.62,2.71-18.85c0.65-8.22,0.97-18.05,0.97-29.48c0-9.37-0.25-16.74-0.74-22.12
			c-0.49-5.37-1.22-9.83-2.19-13.38c-0.97-3.54-2.16-7.03-3.57-10.46c-1.44-3.43-2.66-7.03-3.66-10.8s-1.77-8.75-2.28-14.92
			c-0.51-6.17-0.77-14.74-0.77-25.72c0-12.11,0.25-23.03,0.75-32.74c0.5-9.71,1.21-18.05,2.12-25.03c0.91-6.98,1.98-12.29,3.2-15.95
			c1.22-3.66,2.56-5.49,4.02-5.49c1.08,0,2.05,1.09,2.93,3.26c0.87,2.18,1.66,5.38,2.35,9.61c0.69,4.24,1.3,9.44,1.83,15.62
			l-1.26,13.74c-0.29-4.12-0.63-7.84-1.04-11.16c-0.41-3.32-0.87-6.12-1.4-8.41c-0.53-2.29-1.09-4-1.69-5.15
			c-0.6-1.14-1.26-1.72-1.98-1.72c-1.75,0-3.2,2.63-4.36,7.89s-2.04,12.29-2.62,21.09c-0.59,8.8-0.88,18.69-0.88,29.66
			c0,8.46,0.22,15.09,0.66,19.88c0.44,4.8,1.11,8.75,1.99,11.83c0.89,3.09,2.01,6.23,3.38,9.43c1.58,3.66,2.9,7.66,3.97,12
			c1.07,4.35,1.87,9.89,2.42,16.63s0.83,16.06,0.83,27.94c0,12.58-0.26,23.6-0.79,33.09c-0.53,9.49-1.25,17.32-2.17,23.49
			c-0.92,6.17-1.99,10.8-3.21,13.88C248.7,272.82,247.37,274.36,245.93,274.36z"/>
		<path class="st0" d="M262.52,94.43h1.8l-3.95,178.21h-1.8L262.52,94.43z M264.14,22.32h1.8l-0.68,31.59h-1.8L264.14,22.32z"/>
	</g>
</g>
<g>
	<g>
		<path class="st2" d="M100.45,12.99h3.42l-4.62,75.82h28.31l4.62-75.82h3.42l-10.13,166.15h-3.42l4.85-79.56H98.59l-4.85,79.56
			h-3.42L100.45,12.99z"/>
		<path class="st2" d="M133.46,221.76c1.83-1.09,3.33-2.65,4.5-4.67c1.16-2.03,2.22-4.94,3.19-8.75c0.96-3.81,2.05-8.99,3.25-15.52
			l2.42-12.6l-7.45-122.53h3.49l6.31,109.92l3.22-17.74c2.01-11.2,3.7-21,5.07-29.41c1.36-8.4,2.54-16.03,3.52-22.87
			c0.98-6.85,1.8-13.46,2.45-19.84c0.65-6.38,1.26-13.07,1.85-20.07h3.35c-0.58,7.47-1.22,14.47-1.91,21.01
			c-0.69,6.53-1.54,13.34-2.55,20.42c-1.01,7.08-2.26,15.09-3.76,24.04c-1.5,8.95-3.37,19.57-5.6,31.85l-5.5,30.11
			c-1.57,8.71-2.96,15.91-4.19,21.59c-1.23,5.68-2.42,10.27-3.56,13.77c-1.14,3.5-2.33,6.07-3.56,7.7c-1.23,1.63-2.6,2.68-4.13,3.15
			L133.46,221.76z"/>
		<path class="st2" d="M178.28,181.48c-5.41,0-8.12-10.59-8.12-31.77c0-3.27,0.07-6.69,0.2-10.27c0.13-3.58,0.31-7.47,0.54-11.68
			l4.36-70.07h3.29l-4.16,68.42c-0.49,7.47-0.74,14.09-0.74,19.85c0,16.66,2.08,24.99,6.24,24.99c1.88,0,3.76-1.52,5.64-4.55
			c1.88-3.04,3.65-7.31,5.3-12.84c1.65-5.53,3.02-11.95,4.09-19.26l4.63-76.61h3.35l-6.17,101.58c-0.09,1.25-0.17,2.41-0.23,3.5
			c-0.07,1.09-0.1,1.79-0.1,2.1c0,2.49,0.38,3.74,1.14,3.74l-0.67,10.53c-0.31,0-0.59,0.04-0.84,0.12
			c-0.25,0.08-0.46,0.12-0.64,0.12c-0.72-0.31-1.26-1.17-1.64-2.57c-0.38-1.4-0.57-3.27-0.57-5.61c0-0.62,0.02-1.44,0.07-2.45
			c0.04-1.01,0.15-2.92,0.3-5.72c0.16-2.8,0.41-7.01,0.77-12.61c-2.06,9.66-4.52,17.25-7.38,22.78
			C184.07,178.72,181.18,181.48,178.28,181.48z"/>
		<path class="st2" d="M213.3,57.69h3.15l-1.81,29.13c1.3-6.22,2.82-11.62,4.56-16.2c1.74-4.58,3.62-8.2,5.64-10.84
			c2.01-2.64,3.98-3.96,5.9-3.96c1.79,0,3.23,1.13,4.33,3.38c1.1,2.25,1.9,5.55,2.42,9.91c0.51,4.35,0.77,9.64,0.77,15.85
			c0,3.58-0.08,7.38-0.23,11.42c-0.16,4.04-0.37,8.4-0.64,13.05l-4.23,69.71h-3.35l4.09-67.58c0.27-4.35,0.46-8.31,0.57-11.89
			c0.11-3.57,0.17-6.83,0.17-9.79c0-7.92-0.46-13.78-1.38-17.59c-0.92-3.81-2.31-5.71-4.19-5.71c-1.83,0-3.74,1.63-5.7,4.89
			c-1.97,3.26-3.79,7.72-5.47,13.39c-1.68,5.67-3.03,12.07-4.06,19.21l-4.56,75.07h-3.35L213.3,57.69z"/>
		<path class="st2" d="M253.48,181.48c-2.64,0-5.04-1.56-7.21-4.68c-2.17-3.12-3.92-7.8-5.27-14.04l2.08-7.96
			c1.48,5.77,3.09,10.06,4.83,12.87c1.74,2.81,3.71,4.21,5.9,4.21c2.19,0,4.13-1.16,5.8-3.49c1.68-2.33,3.01-5.66,3.99-10.01
			c0.98-4.35,1.48-9.39,1.48-15.14c0-6.22-0.78-10.64-2.35-13.29c-1.57-2.64-3.8-5.36-6.71-8.16c-2.06-2.02-3.79-3.92-5.2-5.71
			c-1.41-1.79-2.46-4.16-3.15-7.11c-0.69-2.95-1.04-7-1.04-12.12c0-8.86,0.66-16.32,1.98-22.38s3.08-10.68,5.27-13.87
			c2.19-3.18,4.61-4.78,7.25-4.78c2.68,0,4.93,1.6,6.74,4.8c1.81,3.2,3.1,7.29,3.86,12.29l-2.21,6.32
			c-0.76-4.68-1.92-8.15-3.49-10.41c-1.57-2.26-3.33-3.39-5.3-3.39c-1.79,0-3.51,1.01-5.17,3.03c-1.66,2.02-3,5.13-4.03,9.32
			c-1.03,4.19-1.54,9.55-1.54,16.07c0,5.44,0.59,9.28,1.78,11.53c1.18,2.25,3.08,4.54,5.67,6.87c2.28,2.18,4.25,4.4,5.9,6.65
			c1.65,2.25,2.93,5.09,3.82,8.51s1.34,8.08,1.34,13.99c0,8.08-0.64,15.16-1.91,21.22c-1.28,6.06-3.04,10.72-5.3,13.99
			C259.04,179.85,256.44,181.48,253.48,181.48z"/>
		<path class="st2" d="M288.04,181.48c-2.95,0-5.4-2.29-7.35-6.88c-1.95-4.59-3.41-10.72-4.39-18.42
			c-0.98-7.69-1.48-16.12-1.48-25.29c0-10.41,0.55-20.17,1.64-29.26c1.09-9.09,2.58-17.06,4.46-23.9c1.88-6.84,4.04-12.2,6.47-16.09
			c2.44-3.88,4.98-5.83,7.62-5.83c2.95,0,5.41,2.33,7.38,6.99c1.97,4.67,3.43,10.84,4.39,18.53c0.96,7.69,1.44,16.21,1.44,25.53
			c0,10.26-0.54,19.89-1.61,28.91s-2.55,16.98-4.43,23.9c-1.88,6.92-4.03,12.28-6.44,16.08
			C293.34,179.58,290.76,181.48,288.04,181.48z M288.64,170.95c2.06,0,4.05-1.55,5.97-4.66c1.92-3.11,3.66-7.5,5.2-13.16
			c1.54-5.67,2.76-12.27,3.66-19.8c0.89-7.53,1.34-15.72,1.34-24.58c0-7.92-0.39-15.06-1.17-21.43c-0.78-6.37-1.94-11.46-3.46-15.26
			c-1.52-3.8-3.42-5.71-5.7-5.71c-2.06,0-4.05,1.59-5.97,4.78c-1.92,3.19-3.66,7.65-5.2,13.4c-1.54,5.75-2.76,12.42-3.66,20.03
			c-0.9,7.61-1.34,15.84-1.34,24.7c0,7.77,0.38,14.83,1.14,21.2c0.76,6.37,1.91,11.38,3.46,15.03S286.36,170.95,288.64,170.95z"/>
		<path class="st2" d="M326.21,181.48c-2.95,0-5.4-2.29-7.35-6.88c-1.95-4.59-3.41-10.72-4.39-18.42
			c-0.98-7.69-1.48-16.12-1.48-25.29c0-10.41,0.55-20.17,1.64-29.26c1.1-9.09,2.58-17.06,4.46-23.9c1.88-6.84,4.04-12.2,6.47-16.09
			c2.44-3.88,4.97-5.83,7.61-5.83c2.95,0,5.41,2.33,7.38,6.99c1.97,4.67,3.43,10.84,4.39,18.53c0.96,7.69,1.44,16.21,1.44,25.53
			c0,10.26-0.54,19.89-1.61,28.91c-1.07,9.02-2.55,16.98-4.43,23.9c-1.88,6.92-4.03,12.28-6.44,16.08S328.94,181.48,326.21,181.48z
			 M326.82,170.95c2.06,0,4.05-1.55,5.97-4.66c1.92-3.11,3.66-7.5,5.2-13.16c1.54-5.67,2.76-12.27,3.66-19.8
			c0.89-7.53,1.34-15.72,1.34-24.58c0-7.92-0.39-15.06-1.17-21.43c-0.78-6.37-1.93-11.46-3.46-15.26c-1.52-3.8-3.42-5.71-5.7-5.71
			c-2.06,0-4.05,1.59-5.97,4.78c-1.92,3.19-3.66,7.65-5.2,13.4c-1.54,5.75-2.76,12.42-3.66,20.03c-0.9,7.61-1.34,15.84-1.34,24.7
			c0,7.77,0.38,14.83,1.14,21.2c0.76,6.37,1.91,11.38,3.46,15.03C322.62,169.13,324.53,170.95,326.82,170.95z"/>
		<path class="st2" d="M382.57,180.31c-3.62,0-6.78-2.03-9.46-6.08c-2.68-4.05-5.1-10.3-7.25-18.72l2.35-9.59
			c0.76,3.43,1.63,6.55,2.62,9.36c0.98,2.81,2.1,5.31,3.35,7.49c1.25,2.19,2.63,3.86,4.13,5.03c1.5,1.17,3.16,1.75,5,1.75
			c2.91,0,5.45-1.48,7.62-4.44c2.17-2.96,3.86-7.24,5.07-12.85c1.21-5.61,1.81-12.3,1.81-20.09c0-6.38-0.46-11.41-1.38-15.07
			c-0.92-3.66-2.28-6.7-4.09-9.12c-1.81-2.41-4.04-4.79-6.68-7.13c-2.68-2.34-4.96-4.79-6.84-7.36c-1.88-2.57-3.3-5.96-4.26-10.17
			c-0.96-4.21-1.44-10.05-1.44-17.53c0-8.26,0.47-15.69,1.41-22.31c0.94-6.62,2.26-12.3,3.96-17.06c1.7-4.75,3.69-8.37,5.97-10.87
			c2.28-2.49,4.79-3.74,7.51-3.74c2.01,0,3.83,0.74,5.47,2.22c1.63,1.48,3.1,3.67,4.39,6.55c1.3,2.89,2.44,6.44,3.42,10.65
			l-2.35,9.36c-0.54-2.81-1.19-5.34-1.95-7.61c-0.76-2.26-1.63-4.17-2.62-5.73c-0.98-1.56-2.04-2.73-3.15-3.51
			c-1.12-0.78-2.35-1.17-3.69-1.17c-3.27,0-5.98,1.79-8.15,5.38c-2.17,3.58-3.8,8.37-4.9,14.37c-1.1,6-1.64,12.74-1.64,20.21
			c0,5.76,0.41,10.28,1.24,13.55c0.83,3.27,2.07,5.96,3.72,8.06c1.65,2.11,3.76,4.25,6.31,6.42c2.95,2.49,5.42,5.22,7.41,8.18
			c1.99,2.96,3.5,6.74,4.53,11.33c1.03,4.6,1.54,10.94,1.54,19.04c0,8.57-0.49,16.08-1.48,22.55c-0.98,6.46-2.34,11.8-4.06,16.01
			s-3.72,7.36-6,9.46C387.73,179.26,385.25,180.31,382.57,180.31z"/>
		<path class="st2" d="M413.56,57.69h3.35l-7.38,121.45h-3.35L413.56,57.69z M416.58,8.55h3.35l-1.27,21.53h-3.35L416.58,8.55z"/>
	</g>
</g>
</svg>
