<?xml version="1.0" encoding="utf-8"?>
<!-- Generator: Adobe Illustrator 23.1.1, SVG Export Plug-In . SVG Version: 6.00 Build 0)  -->
<svg version="1.1" id="레이어_1" xmlns="http://www.w3.org/2000/svg" xmlns:xlink="http://www.w3.org/1999/xlink" x="0px"
	 y="0px" viewBox="0 0 189 335" style="enable-background:new 0 0 189 335;" xml:space="preserve">
<style type="text/css">
	.st0{fill:#EBFFFF;}
</style>
<g>
	<g>
		<path class="st0" d="M11.84,10.73h1.83L11.2,121.98h15.16l2.48-111.25h1.83l-5.42,243.8h-1.83L26,137.77H10.85l-2.6,116.75H6.42
			L11.84,10.73z"/>
		<path class="st0" d="M29.51,317.05c0.98-1.6,1.78-3.88,2.41-6.85c0.62-2.97,1.19-7.25,1.71-12.84c0.51-5.6,1.1-13.19,1.74-22.77
			l1.29-18.49L32.67,76.31h1.87l3.38,161.29l1.72-26.03c1.08-16.44,1.98-30.82,2.71-43.15c0.73-12.33,1.36-23.52,1.89-33.56
			c0.53-10.04,0.96-19.75,1.31-29.11c0.35-9.36,0.68-19.17,0.99-29.45h1.8c-0.31,10.96-0.65,21.24-1.02,30.82
			c-0.37,9.59-0.83,19.58-1.36,29.96c-0.54,10.39-1.21,22.15-2.01,35.27c-0.8,13.13-1.8,28.71-3,46.74l-2.94,44.18
			c-0.84,12.78-1.59,23.34-2.25,31.68c-0.66,8.33-1.29,15.07-1.9,20.21c-0.61,5.13-1.25,8.9-1.9,11.3
			c-0.66,2.39-1.39,3.93-2.21,4.62L29.51,317.05z"/>
		<path class="st0" d="M53.5,257.96c-2.9,0-4.35-15.54-4.35-46.61c0-4.8,0.04-9.82,0.11-15.08c0.07-5.25,0.17-10.97,0.29-17.14
			l2.33-102.82h1.76l-2.23,100.4c-0.26,10.97-0.4,20.68-0.4,29.13c0,24.44,1.11,36.67,3.34,36.67c1.01,0,2.01-2.23,3.02-6.68
			c1.01-4.45,1.95-10.73,2.84-18.84c0.89-8.11,1.62-17.53,2.19-28.26l2.48-112.41h1.8l-3.3,149.05c-0.05,1.83-0.09,3.54-0.13,5.14
			c-0.04,1.6-0.05,2.63-0.05,3.08c0,3.66,0.2,5.48,0.61,5.48l-0.36,15.45c-0.17,0-0.32,0.05-0.45,0.17
			c-0.13,0.11-0.25,0.17-0.34,0.17c-0.38-0.46-0.68-1.71-0.88-3.77c-0.2-2.05-0.31-4.8-0.31-8.22c0-0.91,0.01-2.11,0.04-3.59
			c0.02-1.48,0.08-4.28,0.16-8.4c0.08-4.11,0.22-10.28,0.41-18.5c-1.1,14.17-2.42,25.31-3.95,33.42
			C56.6,253.91,55.06,257.96,53.5,257.96z"/>
		<path class="st0" d="M72.25,76.31h1.69l-0.97,42.75c0.69-9.12,1.51-17.05,2.44-23.77c0.93-6.73,1.94-12.03,3.02-15.91
			c1.08-3.87,2.13-5.82,3.16-5.82c0.96,0,1.73,1.66,2.32,4.96c0.59,3.3,1.02,8.15,1.29,14.53c0.27,6.38,0.41,14.14,0.41,23.26
			c0,5.25-0.04,10.83-0.13,16.76c-0.08,5.93-0.2,12.32-0.34,19.15l-2.26,102.28h-1.8l2.19-99.17c0.14-6.38,0.25-12.2,0.31-17.44
			c0.06-5.24,0.09-10.03,0.09-14.36c0-11.62-0.25-20.23-0.74-25.81c-0.49-5.59-1.24-8.38-2.24-8.38c-0.98,0-2,2.39-3.05,7.18
			c-1.05,4.79-2.03,11.33-2.93,19.65s-1.62,17.71-2.17,28.19L70.1,254.52h-1.8L72.25,76.31z"/>
		<path class="st0" d="M93.77,257.96c-1.41,0-2.7-2.29-3.86-6.87c-1.16-4.58-2.1-11.44-2.82-20.6l1.11-11.67
			c0.79,8.47,1.65,14.76,2.59,18.89c0.93,4.12,1.99,6.18,3.16,6.18c1.17,0,2.21-1.71,3.11-5.12c0.9-3.41,1.61-8.31,2.14-14.69
			c0.53-6.38,0.79-13.78,0.79-22.21c0-9.12-0.42-15.62-1.26-19.5c-0.84-3.87-2.04-7.87-3.59-11.98c-1.1-2.96-2.03-5.76-2.78-8.38
			c-0.75-2.62-1.32-6.1-1.69-10.43c-0.37-4.34-0.56-10.26-0.56-17.79c0-12.99,0.35-23.94,1.06-32.84c0.71-8.9,1.65-15.68,2.82-20.36
			c1.17-4.67,2.47-7.01,3.88-7.01c1.44,0,2.64,2.35,3.61,7.04c0.97,4.69,1.66,10.7,2.07,18.03l-1.19,9.27
			c-0.41-6.87-1.03-11.96-1.87-15.28c-0.84-3.32-1.78-4.98-2.84-4.98c-0.96,0-1.88,1.49-2.77,4.45c-0.89,2.96-1.6,7.52-2.16,13.67
			c-0.55,6.15-0.83,14.01-0.83,23.59c0,7.98,0.32,13.62,0.95,16.92c0.63,3.3,1.65,6.67,3.03,10.09c1.22,3.2,2.27,6.45,3.16,9.75
			c0.89,3.3,1.57,7.47,2.05,12.48c0.48,5.02,0.72,11.86,0.72,20.52c0,11.86-0.34,22.24-1.02,31.13c-0.68,8.9-1.63,15.74-2.84,20.52
			C96.74,255.56,95.35,257.96,93.77,257.96z"/>
		<path class="st0" d="M112.26,257.96c-1.58,0-2.89-3.36-3.93-10.09c-1.04-6.73-1.83-15.74-2.35-27.03
			c-0.53-11.29-0.79-23.66-0.79-37.12c0-15.28,0.29-29.59,0.88-42.94c0.59-13.34,1.38-25.03,2.39-35.06
			c1.01-10.03,2.16-17.9,3.47-23.61c1.3-5.7,2.66-8.55,4.08-8.55c1.58,0,2.9,3.42,3.95,10.26c1.05,6.85,1.84,15.91,2.35,27.2
			c0.51,11.29,0.77,23.78,0.77,37.46c0,15.05-0.29,29.19-0.86,42.42s-1.36,24.92-2.37,35.07s-2.15,18.02-3.45,23.6
			C115.1,255.16,113.72,257.96,112.26,257.96z M112.59,242.5c1.1,0,2.17-2.27,3.2-6.83c1.03-4.56,1.96-11,2.78-19.32
			c0.83-8.32,1.48-18.01,1.96-29.06c0.48-11.05,0.72-23.07,0.72-36.07c0-11.62-0.21-22.1-0.63-31.45
			c-0.42-9.35-1.04-16.81-1.85-22.39c-0.81-5.58-1.83-8.38-3.05-8.38c-1.1,0-2.17,2.34-3.2,7.01c-1.03,4.67-1.96,11.22-2.78,19.66
			c-0.83,8.43-1.48,18.23-1.96,29.4c-0.48,11.17-0.72,23.25-0.72,36.24c0,11.4,0.2,21.77,0.61,31.11c0.41,9.35,1.02,16.7,1.85,22.05
			S111.36,242.5,112.59,242.5z"/>
		<path class="st0" d="M132.7,257.96c-1.58,0-2.89-3.36-3.93-10.09c-1.04-6.73-1.83-15.74-2.35-27.03
			c-0.53-11.29-0.79-23.66-0.79-37.12c0-15.28,0.29-29.59,0.88-42.94c0.59-13.34,1.38-25.03,2.39-35.06
			c1.01-10.03,2.16-17.9,3.47-23.61c1.3-5.7,2.66-8.55,4.08-8.55c1.58,0,2.9,3.42,3.95,10.26c1.05,6.85,1.84,15.91,2.35,27.2
			c0.51,11.29,0.77,23.78,0.77,37.46c0,15.05-0.29,29.19-0.86,42.42s-1.36,24.92-2.37,35.07s-2.15,18.02-3.45,23.6
			C135.54,255.16,134.16,257.96,132.7,257.96z M133.02,242.5c1.1,0,2.17-2.27,3.2-6.83c1.03-4.56,1.96-11,2.78-19.32
			c0.83-8.32,1.48-18.01,1.96-29.06c0.48-11.05,0.72-23.07,0.72-36.07c0-11.62-0.21-22.1-0.63-31.45
			c-0.42-9.35-1.04-16.81-1.85-22.39c-0.81-5.58-1.83-8.38-3.05-8.38c-1.1,0-2.17,2.34-3.2,7.01c-1.03,4.67-1.96,11.22-2.78,19.66
			c-0.83,8.43-1.48,18.23-1.96,29.4c-0.48,11.17-0.72,23.25-0.72,36.24c0,11.4,0.2,21.77,0.61,31.11c0.41,9.35,1.02,16.7,1.85,22.05
			S131.8,242.5,133.02,242.5z"/>
		<path class="st0" d="M162.87,256.24c-1.94,0-3.63-2.97-5.06-8.93c-1.44-5.95-2.73-15.11-3.88-27.47l1.26-14.08
			c0.41,5.04,0.87,9.61,1.4,13.74c0.53,4.12,1.12,7.79,1.8,10.99c0.67,3.21,1.41,5.67,2.21,7.38c0.8,1.72,1.69,2.58,2.68,2.58
			c1.56,0,2.91-2.17,4.08-6.51c1.16-4.34,2.07-10.62,2.71-18.85c0.65-8.23,0.97-18.05,0.97-29.48c0-9.37-0.25-16.74-0.74-22.12
			c-0.49-5.37-1.22-9.83-2.19-13.38c-0.97-3.54-2.16-7.03-3.57-10.46c-1.44-3.43-2.66-7.03-3.66-10.8
			c-1.01-3.77-1.77-8.75-2.28-14.92c-0.52-6.17-0.77-14.74-0.77-25.72c0-12.12,0.25-23.03,0.75-32.74
			c0.5-9.71,1.21-18.05,2.12-25.03c0.91-6.98,1.98-12.29,3.2-15.95c1.22-3.66,2.56-5.49,4.02-5.49c1.08,0,2.05,1.09,2.93,3.26
			c0.87,2.18,1.66,5.38,2.35,9.61c0.69,4.24,1.3,9.44,1.83,15.62l-1.26,13.74c-0.29-4.12-0.63-7.84-1.04-11.16
			c-0.41-3.32-0.87-6.12-1.4-8.41c-0.53-2.29-1.09-4-1.69-5.15c-0.6-1.14-1.26-1.72-1.98-1.72c-1.75,0-3.2,2.63-4.36,7.89
			c-1.16,5.26-2.04,12.29-2.62,21.09c-0.59,8.8-0.88,18.69-0.88,29.66c0,8.46,0.22,15.09,0.66,19.88c0.44,4.8,1.11,8.75,1.99,11.83
			c0.89,3.09,2.01,6.23,3.38,9.43c1.58,3.66,2.9,7.66,3.97,12c1.07,4.35,1.87,9.89,2.42,16.63s0.83,16.06,0.83,27.94
			c0,12.58-0.26,23.6-0.79,33.09c-0.53,9.49-1.25,17.32-2.17,23.49c-0.92,6.17-1.99,10.8-3.21,13.89
			C165.63,254.69,164.3,256.24,162.87,256.24z"/>
		<path class="st0" d="M179.46,76.31h1.8l-3.95,178.21h-1.8L179.46,76.31z M181.08,4.2h1.8l-0.68,31.59h-1.8L181.08,4.2z"/>
	</g>
</g>
</svg>
